# Blender v2.93.0 OBJ File: ''
# www.blender.org
o Cone_Cone.002
v 0.000000 -1.000000 -1.500000
v 1.299038 -1.000000 0.750000
v -1.299038 -1.000000 0.750000
v 0.000000 0.000000 -0.750000
v 0.649519 0.000000 0.375000
v -0.649519 0.000000 0.375000
vt 0.433013 0.500000
vt 0.638550 0.125000
vt 0.638550 0.375000
vt 0.433013 0.000000
vt 0.000000 0.250000
vt 0.638550 0.500000
vt 0.844086 0.125000
vt 0.844086 0.375000
vt 0.000000 1.000000
vt 0.205537 0.625000
vt 0.205537 0.875000
vt 0.422043 0.500000
vt 0.422043 0.750000
vt 0.638550 0.000000
vt 0.000000 0.500000
vn 0.8109 0.3511 -0.4682
vn 0.0000 -1.0000 0.0000
vn -0.0000 0.3511 0.9363
vn -0.8109 0.3511 -0.4682
vn 0.0000 1.0000 0.0000
s off
f 2/1/1 4/2/1 5/3/1
f 1/4/2 2/1/2 3/5/2
f 3/6/3 5/7/3 6/8/3
f 1/9/4 6/10/4 4/11/4
f 5/12/5 4/13/5 6/10/5
f 2/1/1 1/4/1 4/2/1
f 3/6/3 2/14/3 5/7/3
f 1/9/4 3/15/4 6/10/4
